<svg width="143" height="46" viewBox="0 0 143 46" fill="none" xmlns="http://www.w3.org/2000/svg">
<g filter="url(#filter0_d_2_5)">
<path d="M34.5 12.5L4.5 38H15L34.5 19.5L44.5 21.5L51.5 12.5L62 13.5L67.5 7L88 16L94.5 7L104 19.5L117.5 17.5L94.5 0L88 10L67.5 0L59.5 10L53 5L41.5 17.5L34.5 12.5Z" fill="white"/>
<path d="M59.708 28.872V34.98L60.596 35.34V36H57.848V35.34L58.676 34.98V28.632L55.952 34.98H55.148L52.412 28.632V34.98L53.24 35.34V36H50.66V35.34L51.548 34.98V28.872L50.66 28.524V27.84H53.192L55.652 33.636L58.112 27.84H60.596V28.524L59.708 28.872Z" fill="white"/>
<path d="M64.8017 29.808C65.7217 29.808 66.4577 30.064 67.0097 30.576C67.5697 31.08 67.8497 31.884 67.8497 32.988C67.8497 34.092 67.5697 34.9 67.0097 35.412C66.4577 35.916 65.7217 36.168 64.8017 36.168C63.8817 36.168 63.1417 35.916 62.5817 35.412C62.0297 34.9 61.7537 34.092 61.7537 32.988C61.7537 31.884 62.0297 31.08 62.5817 30.576C63.1417 30.064 63.8817 29.808 64.8017 29.808ZM64.8017 30.672C64.3217 30.672 63.9377 30.74 63.6497 30.876C63.3697 31.012 63.1577 31.248 63.0137 31.584C62.8777 31.92 62.8097 32.388 62.8097 32.988C62.8097 33.588 62.8777 34.056 63.0137 34.392C63.1577 34.728 63.3697 34.964 63.6497 35.1C63.9377 35.236 64.3217 35.304 64.8017 35.304C65.2817 35.304 65.6617 35.236 65.9417 35.1C66.2297 34.964 66.4417 34.728 66.5777 34.392C66.7217 34.056 66.7937 33.588 66.7937 32.988C66.7937 32.388 66.7217 31.92 66.5777 31.584C66.4417 31.248 66.2297 31.012 65.9417 30.876C65.6617 30.74 65.2817 30.672 64.8017 30.672Z" fill="white"/>
<path d="M75.6958 35.316V36H74.3638L74.0518 35.508C73.5878 35.74 73.1558 35.908 72.7558 36.012C72.3638 36.116 71.9638 36.168 71.5558 36.168C71.0438 36.168 70.6398 36.092 70.3438 35.94C70.0558 35.78 69.8478 35.532 69.7198 35.196C69.5918 34.852 69.5278 34.392 69.5278 33.816V30.996L68.7118 30.636V29.976H70.5358V33.948C70.5358 34.42 70.6478 34.764 70.8718 34.98C71.1038 35.188 71.4398 35.292 71.8798 35.292C72.1598 35.292 72.4318 35.256 72.6958 35.184C72.9678 35.112 73.3598 34.984 73.8718 34.8V30.972L73.0558 30.636V29.976H74.8798V34.98L75.6958 35.316Z" fill="white"/>
<path d="M83.6571 35.34V36H81.8331V32.028C81.8331 31.556 81.7171 31.216 81.4851 31.008C81.2611 30.792 80.9291 30.684 80.4891 30.684C80.2091 30.684 79.9331 30.72 79.6611 30.792C79.3971 30.864 79.0091 30.992 78.4971 31.176V34.98L79.4331 35.34V36H76.6731V35.34L77.4891 34.98V30.996L76.6731 30.66V29.976H78.0051L78.3171 30.468C78.7651 30.236 79.1891 30.068 79.5891 29.964C79.9891 29.86 80.3971 29.808 80.8131 29.808C81.3171 29.808 81.7171 29.888 82.0131 30.048C82.3091 30.2 82.5211 30.448 82.6491 30.792C82.7771 31.128 82.8411 31.584 82.8411 32.16V34.98L83.6571 35.34Z" fill="white"/>
<path d="M87.4741 36.096C86.7061 36.096 86.1541 35.94 85.8181 35.628C85.4901 35.316 85.3261 34.788 85.3261 34.044V30.816H84.3901V30.144L85.3261 29.976L85.6861 28.236H86.3341V29.976L88.3861 29.988V30.828L86.3341 30.816V34.044C86.3341 34.372 86.3741 34.62 86.4541 34.788C86.5341 34.956 86.6661 35.072 86.8501 35.136C87.0341 35.2 87.3021 35.232 87.6541 35.232C87.9261 35.232 88.2101 35.204 88.5061 35.148V35.988C88.2181 36.06 87.8741 36.096 87.4741 36.096Z" fill="white"/>
<path d="M95.8883 35.34V36H94.4603L94.1483 35.136C93.8203 35.472 93.4643 35.72 93.0803 35.88C92.7043 36.04 92.2803 36.12 91.8083 36.12C91.0403 36.12 90.4723 35.972 90.1043 35.676C89.7363 35.38 89.5523 34.9 89.5523 34.236C89.5523 33.532 89.7723 33.024 90.2123 32.712C90.6523 32.392 91.3603 32.232 92.3363 32.232C92.7203 32.232 93.0563 32.268 93.3443 32.34C93.6403 32.404 93.8803 32.484 94.0643 32.58V32.112C94.0643 31.744 94.0163 31.46 93.9203 31.26C93.8323 31.052 93.6683 30.904 93.4283 30.816C93.1963 30.72 92.8563 30.672 92.4083 30.672C91.6003 30.672 90.7603 30.768 89.8883 30.96V30.096C90.7763 29.904 91.6243 29.808 92.4323 29.808C93.1843 29.808 93.7483 29.884 94.1243 30.036C94.5083 30.188 94.7603 30.408 94.8803 30.696C95.0083 30.984 95.0723 31.384 95.0723 31.896V34.98L95.8883 35.34ZM90.6083 34.164C90.6083 34.556 90.7043 34.836 90.8963 35.004C91.0963 35.172 91.4563 35.256 91.9763 35.256C92.3603 35.256 92.7283 35.188 93.0803 35.052C93.4403 34.908 93.7683 34.712 94.0643 34.464V33.264C93.6163 33.136 93.0763 33.072 92.4443 33.072C91.7483 33.072 91.2683 33.16 91.0043 33.336C90.7403 33.512 90.6083 33.788 90.6083 34.164Z" fill="white"/>
<path d="M98.0885 27.348C98.3365 27.348 98.5325 27.42 98.6765 27.564C98.8285 27.708 98.9045 27.912 98.9045 28.176C98.9045 28.44 98.8285 28.644 98.6765 28.788C98.5325 28.932 98.3365 29.004 98.0885 29.004C97.8405 29.004 97.6405 28.932 97.4885 28.788C97.3445 28.644 97.2725 28.44 97.2725 28.176C97.2725 27.912 97.3445 27.708 97.4885 27.564C97.6405 27.42 97.8405 27.348 98.0885 27.348ZM98.6885 34.98L99.5045 35.34V36H96.8645V35.34L97.6805 34.98V30.996L96.8645 30.66V29.976H98.6885V34.98Z" fill="white"/>
<path d="M107.458 35.34V36H105.634V32.028C105.634 31.556 105.518 31.216 105.286 31.008C105.062 30.792 104.73 30.684 104.29 30.684C104.01 30.684 103.734 30.72 103.462 30.792C103.198 30.864 102.81 30.992 102.298 31.176V34.98L103.234 35.34V36H100.474V35.34L101.29 34.98V30.996L100.474 30.66V29.976H101.806L102.118 30.468C102.566 30.236 102.99 30.068 103.39 29.964C103.79 29.86 104.198 29.808 104.614 29.808C105.118 29.808 105.518 29.888 105.814 30.048C106.11 30.2 106.322 30.448 106.45 30.792C106.578 31.128 106.642 31.584 106.642 32.16V34.98L107.458 35.34Z" fill="white"/>
<path d="M119.629 27.84V28.524L118.801 28.872L116.665 36H115.453L113.629 29.604L111.769 36H110.545L108.385 28.872L107.557 28.524V27.84H110.353V28.524L109.465 28.872L111.241 34.92L113.053 28.5H114.313L116.137 34.908L117.901 28.872L117.013 28.524V27.84H119.629Z" fill="white"/>
<path d="M126.088 35.34V36H124.66L124.348 35.136C124.02 35.472 123.664 35.72 123.28 35.88C122.904 36.04 122.479 36.12 122.007 36.12C121.239 36.12 120.671 35.972 120.303 35.676C119.935 35.38 119.752 34.9 119.752 34.236C119.752 33.532 119.971 33.024 120.411 32.712C120.851 32.392 121.559 32.232 122.535 32.232C122.919 32.232 123.256 32.268 123.544 32.34C123.84 32.404 124.079 32.484 124.263 32.58V32.112C124.263 31.744 124.215 31.46 124.119 31.26C124.031 31.052 123.868 30.904 123.628 30.816C123.396 30.72 123.055 30.672 122.607 30.672C121.799 30.672 120.96 30.768 120.088 30.96V30.096C120.976 29.904 121.824 29.808 122.632 29.808C123.384 29.808 123.948 29.884 124.324 30.036C124.708 30.188 124.959 30.408 125.079 30.696C125.207 30.984 125.271 31.384 125.271 31.896V34.98L126.088 35.34ZM120.808 34.164C120.808 34.556 120.903 34.836 121.095 35.004C121.295 35.172 121.655 35.256 122.175 35.256C122.559 35.256 122.928 35.188 123.28 35.052C123.64 34.908 123.967 34.712 124.263 34.464V33.264C123.815 33.136 123.276 33.072 122.644 33.072C121.948 33.072 121.467 33.16 121.203 33.336C120.939 33.512 120.808 33.788 120.808 34.164Z" fill="white"/>
<path d="M131.252 29.784C131.604 29.784 131.86 29.868 132.02 30.036C132.18 30.204 132.26 30.464 132.26 30.816C132.26 31.464 131.892 31.788 131.156 31.788L130.676 30.708C130.364 30.788 130.048 30.9 129.728 31.044C129.416 31.18 129.136 31.328 128.888 31.488V34.98L130.004 35.34V36H127.064V35.34L127.88 34.98V30.996L127.064 30.66V29.976H128.396L128.852 30.696C129.252 30.4 129.66 30.176 130.076 30.024C130.492 29.864 130.884 29.784 131.252 29.784Z" fill="white"/>
<path d="M136.063 29.808C136.879 29.808 137.539 30.064 138.043 30.576C138.555 31.08 138.811 31.832 138.811 32.832V33.312H134.107C134.147 33.848 134.243 34.26 134.395 34.548C134.555 34.828 134.783 35.024 135.079 35.136C135.383 35.248 135.799 35.304 136.327 35.304C137.087 35.304 137.839 35.212 138.583 35.028V35.892C138.271 35.972 137.907 36.036 137.491 36.084C137.075 36.14 136.679 36.168 136.303 36.168C135.239 36.168 134.431 35.928 133.879 35.448C133.327 34.968 133.051 34.148 133.051 32.988C133.051 31.908 133.323 31.108 133.867 30.588C134.411 30.068 135.143 29.808 136.063 29.808ZM136.003 30.672C135.379 30.672 134.923 30.812 134.635 31.092C134.347 31.372 134.175 31.828 134.119 32.46H137.743C137.695 31.868 137.531 31.424 137.251 31.128C136.971 30.824 136.555 30.672 136.003 30.672Z" fill="white"/>
</g>
<defs>
<filter id="filter0_d_2_5" x="0.5" y="0" width="142.311" height="46" filterUnits="userSpaceOnUse" color-interpolation-filters="sRGB">
<feFlood flood-opacity="0" result="BackgroundImageFix"/>
<feColorMatrix in="SourceAlpha" type="matrix" values="0 0 0 0 0 0 0 0 0 0 0 0 0 0 0 0 0 0 127 0" result="hardAlpha"/>
<feOffset dy="4"/>
<feGaussianBlur stdDeviation="2"/>
<feComposite in2="hardAlpha" operator="out"/>
<feColorMatrix type="matrix" values="0 0 0 0 0 0 0 0 0 0 0 0 0 0 0 0 0 0 0.25 0"/>
<feBlend mode="normal" in2="BackgroundImageFix" result="effect1_dropShadow_2_5"/>
<feBlend mode="normal" in="SourceGraphic" in2="effect1_dropShadow_2_5" result="shape"/>
</filter>
</defs>
</svg>
